<svg width="110" height="99" viewBox="0 0 110 99" fill="none" xmlns="http://www.w3.org/2000/svg">
<path d="M53.9922 37.85C53.9922 44.15 53.3089 49.6333 51.9422 54.3C50.6089 58.9333 48.7422 62.7667 46.3422 65.8C43.9755 68.8333 41.1589 71.1 37.8922 72.6C34.6589 74.0667 31.1589 74.8 27.3922 74.8C23.6255 74.8 20.1255 74.0667 16.8922 72.6C13.6922 71.1 10.9089 68.8333 8.54219 65.8C6.17552 62.7667 4.32552 58.9333 2.99219 54.3C1.65885 49.6333 0.992188 44.15 0.992188 37.85C0.992188 31.5167 1.65885 26.0333 2.99219 21.4C4.32552 16.7667 6.17552 12.9333 8.54219 9.9C10.9089 6.86666 13.6922 4.61666 16.8922 3.15C20.1255 1.65 23.6255 0.899999 27.3922 0.899999C31.1589 0.899999 34.6589 1.65 37.8922 3.15C41.1589 4.61666 43.9755 6.86666 46.3422 9.9C48.7422 12.9333 50.6089 16.7667 51.9422 21.4C53.3089 26.0333 53.9922 31.5167 53.9922 37.85ZM41.2422 37.85C41.2422 32.6167 40.8589 28.2833 40.0922 24.85C39.3255 21.4167 38.2922 18.6833 36.9922 16.65C35.7255 14.6167 34.2589 13.2 32.5922 12.4C30.9255 11.5667 29.1922 11.15 27.3922 11.15C25.6255 11.15 23.9089 11.5667 22.2422 12.4C20.6089 13.2 19.1589 14.6167 17.8922 16.65C16.6255 18.6833 15.6089 21.4167 14.8422 24.85C14.1089 28.2833 13.7422 32.6167 13.7422 37.85C13.7422 43.0833 14.1089 47.4167 14.8422 50.85C15.6089 54.2833 16.6255 57.0167 17.8922 59.05C19.1589 61.0833 20.6089 62.5167 22.2422 63.35C23.9089 64.15 25.6255 64.55 27.3922 64.55C29.1922 64.55 30.9255 64.15 32.5922 63.35C34.2589 62.5167 35.7255 61.0833 36.9922 59.05C38.2922 57.0167 39.3255 54.2833 40.0922 50.85C40.8589 47.4167 41.2422 43.0833 41.2422 37.85ZM61.9 21.85C62.4 18.3833 63.3667 15.35 64.8 12.75C66.2333 10.1167 68.0167 7.93333 70.15 6.2C72.3167 4.43333 74.7833 3.11666 77.55 2.25C80.35 1.35 83.35 0.899999 86.55 0.899999C89.8833 0.899999 92.8833 1.38333 95.55 2.35C98.25 3.28333 100.55 4.6 102.45 6.3C104.35 7.96666 105.8 9.93333 106.8 12.2C107.833 14.4667 108.35 16.9167 108.35 19.55C108.35 21.85 108.083 23.8833 107.55 25.65C107.05 27.3833 106.317 28.9 105.35 30.2C104.383 31.5 103.183 32.6 101.75 33.5C100.317 34.4 98.7 35.15 96.9 35.75C101.233 37.1167 104.467 39.2 106.6 42C108.733 44.8 109.8 48.3167 109.8 52.55C109.8 56.15 109.133 59.3333 107.8 62.1C106.467 64.8667 104.667 67.2 102.4 69.1C100.133 70.9667 97.5 72.3833 94.5 73.35C91.5333 74.3167 88.3833 74.8 85.05 74.8C81.4167 74.8 78.25 74.3833 75.55 73.55C72.85 72.7167 70.5 71.4833 68.5 69.85C66.5 68.2167 64.8 66.2167 63.4 63.85C62 61.4833 60.8 58.75 59.8 55.65L65.25 53.4C66.6833 52.8 68.0167 52.65 69.25 52.95C70.5167 53.2167 71.4333 53.8833 72 54.95C72.6 56.1167 73.25 57.2667 73.95 58.4C74.6833 59.5333 75.55 60.55 76.55 61.45C77.55 62.3167 78.7167 63.0333 80.05 63.6C81.4167 64.1333 83.0333 64.4 84.9 64.4C87 64.4 88.8333 64.0667 90.4 63.4C91.9667 62.7 93.2667 61.8 94.3 60.7C95.3667 59.6 96.15 58.3833 96.65 57.05C97.1833 55.6833 97.45 54.3167 97.45 52.95C97.45 51.2167 97.2667 49.65 96.9 48.25C96.5333 46.8167 95.7667 45.6 94.6 44.6C93.4333 43.6 91.75 42.8167 89.55 42.25C87.3833 41.6833 84.4667 41.4 80.8 41.4V32.6C83.8333 32.5667 86.35 32.2833 88.35 31.75C90.35 31.2167 91.9333 30.4833 93.1 29.55C94.3 28.5833 95.1333 27.4333 95.6 26.1C96.0667 24.7667 96.3 23.3 96.3 21.7C96.3 18.3 95.35 15.7167 93.45 13.95C91.55 12.1833 89.0167 11.3 85.85 11.3C84.3833 11.3 83.0333 11.5167 81.8 11.95C80.5667 12.35 79.45 12.9333 78.45 13.7C77.4833 14.4333 76.6667 15.3 76 16.3C75.3333 17.3 74.8333 18.4 74.5 19.6C73.9333 21.1333 73.1833 22.15 72.25 22.65C71.35 23.15 70.0667 23.2667 68.4 23L61.9 21.85Z" fill="#101010" fill-opacity="0.08"/>
<path d="M45.7229 71.6695C45.7229 70.2157 44.7128 69.3472 42.9318 69.3472C42.2049 69.3472 41.7133 69.4179 41.455 69.4868V74.1564C41.7611 74.2253 42.136 74.2502 42.6506 74.2502C44.5502 74.2502 45.7229 73.2879 45.7229 71.6695Z" fill="#ED4C5C"/>
<path d="M56.7532 69.3931C55.9555 69.3931 55.439 69.4638 55.1329 69.5346V79.8801C55.439 79.9509 55.9306 79.9509 56.3764 79.9509C59.6132 79.9738 61.7251 78.1909 61.7251 74.4147C61.75 71.1301 59.8255 69.3931 56.7532 69.3931V69.3931Z" fill="#ED4C5C"/>
<path d="M77.8861 63.3155H76.5891V57.0581C76.588 57.0184 76.5842 56.9787 76.5776 56.9395C76.5797 56.6878 76.4907 56.4439 76.327 56.2527L65.9146 44.3616L65.9069 44.3539C65.7747 44.2104 65.6061 44.1053 65.4191 44.0497L65.3617 44.0306C65.2822 44.0108 65.2007 44.0005 65.1187 44H39.5286C38.3598 44 37.4109 44.9508 37.4109 46.1177V63.3155H36.1139C34.442 63.3155 33.0876 64.6699 33.0876 66.3419V82.082C33.0876 83.752 34.4439 85.1084 36.1139 85.1084H37.4109V95.8843C37.4109 97.0512 38.3598 98.002 39.5286 98.002H74.4714C75.6383 98.002 76.5891 97.0512 76.5891 95.8843V85.1084H77.8861C79.558 85.1084 80.9124 83.752 80.9124 82.082V66.3419C80.9124 64.6699 79.5561 63.3155 77.8861 63.3155V63.3155ZM39.5286 46.1177H64.059V56.9529C64.059 57.5383 64.5334 58.0108 65.1187 58.0108H74.4733V63.3155H39.5286V46.1177ZM65.5262 74.2961C65.5262 77.3225 64.4243 79.4115 62.8958 80.7008C61.2315 82.0839 58.6987 82.742 55.6016 82.742C53.7479 82.742 52.4356 82.6234 51.5422 82.5086V66.977C52.8564 66.7666 54.5686 66.6499 56.3764 66.6499C59.3778 66.6499 61.3253 67.1893 62.8499 68.339C64.4932 69.5576 65.5262 71.505 65.5262 74.2961V74.2961ZM37.9102 82.5794V66.977C39.0121 66.7895 40.5616 66.6499 42.7424 66.6499C44.9481 66.6499 46.5206 67.0726 47.5747 67.9163C48.5828 68.714 49.2619 70.0282 49.2619 71.5758C49.2619 73.1254 48.7473 74.4377 47.8081 75.3291C46.5876 76.4788 44.7817 76.9953 42.6697 76.9953C42.2011 76.9953 41.7783 76.9724 41.4512 76.9246V82.5794H37.9102ZM74.4714 95.3104H39.5286V85.1084H74.4714V95.3104ZM77.5398 69.6992H71.4622V73.3128H77.14V76.2225H71.4622V82.5794H67.8754V66.7666H77.5398V69.6992Z" fill="#ED4C5C"/>
</svg>
