<svg width="112" height="99" viewBox="0 0 112 99" fill="none" xmlns="http://www.w3.org/2000/svg">
<path d="M53.9922 37.85C53.9922 44.15 53.3089 49.6333 51.9422 54.3C50.6089 58.9333 48.7422 62.7667 46.3422 65.8C43.9755 68.8333 41.1589 71.1 37.8922 72.6C34.6589 74.0667 31.1589 74.8 27.3922 74.8C23.6255 74.8 20.1255 74.0667 16.8922 72.6C13.6922 71.1 10.9089 68.8333 8.54219 65.8C6.17552 62.7667 4.32552 58.9333 2.99219 54.3C1.65885 49.6333 0.992188 44.15 0.992188 37.85C0.992188 31.5167 1.65885 26.0333 2.99219 21.4C4.32552 16.7667 6.17552 12.9333 8.54219 9.9C10.9089 6.86666 13.6922 4.61666 16.8922 3.15C20.1255 1.65 23.6255 0.899999 27.3922 0.899999C31.1589 0.899999 34.6589 1.65 37.8922 3.15C41.1589 4.61666 43.9755 6.86666 46.3422 9.9C48.7422 12.9333 50.6089 16.7667 51.9422 21.4C53.3089 26.0333 53.9922 31.5167 53.9922 37.85ZM41.2422 37.85C41.2422 32.6167 40.8589 28.2833 40.0922 24.85C39.3255 21.4167 38.2922 18.6833 36.9922 16.65C35.7255 14.6167 34.2589 13.2 32.5922 12.4C30.9255 11.5667 29.1922 11.15 27.3922 11.15C25.6255 11.15 23.9089 11.5667 22.2422 12.4C20.6089 13.2 19.1589 14.6167 17.8922 16.65C16.6255 18.6833 15.6089 21.4167 14.8422 24.85C14.1089 28.2833 13.7422 32.6167 13.7422 37.85C13.7422 43.0833 14.1089 47.4167 14.8422 50.85C15.6089 54.2833 16.6255 57.0167 17.8922 59.05C19.1589 61.0833 20.6089 62.5167 22.2422 63.35C23.9089 64.15 25.6255 64.55 27.3922 64.55C29.1922 64.55 30.9255 64.15 32.5922 63.35C34.2589 62.5167 35.7255 61.0833 36.9922 59.05C38.2922 57.0167 39.3255 54.2833 40.0922 50.85C40.8589 47.4167 41.2422 43.0833 41.2422 37.85ZM92.1 46.75V23.1C92.1 20.8667 92.25 18.4 92.55 15.7L70.1 46.75H92.1ZM111.95 46.75V53.9C111.95 54.5667 111.733 55.15 111.3 55.65C110.867 56.1167 110.25 56.35 109.45 56.35H102.85V74H92.1V56.35H61.6C60.7667 56.35 60.0333 56.1 59.4 55.6C58.7667 55.0667 58.3667 54.4167 58.2 53.65L56.9 47.4L91.15 1.65H102.85V46.75H111.95Z" fill="#101010" fill-opacity="0.08"/>
<path d="M77.0258 64.9597H75.7512V58.8182C75.7501 58.7791 75.7464 58.7402 75.7399 58.7017C75.7417 58.455 75.6535 58.2161 75.4918 58.0296L65.2608 46.3567L65.2533 46.3492C65.192 46.2831 65.1225 46.2251 65.0465 46.1765L64.9788 46.1352C64.9138 46.0991 64.8451 46.0701 64.7739 46.0488L64.7175 46.03C64.6394 46.0106 64.5592 46.0005 64.4787 46H39.33C38.1813 46 37.2488 46.9332 37.2488 48.0785V64.9578H35.9742C34.331 64.9578 33 66.2871 33 67.9281V83.3768C33 85.0159 34.3329 86.3471 35.9742 86.3471H37.2488V96.9215C37.2488 98.0669 38.1813 99 39.33 99H73.67C74.8168 99 75.7512 98.0669 75.7512 96.9215V86.3471H77.0258C78.6671 86.3471 80 85.0177 80 83.3768V67.9281C80 66.289 78.669 64.9597 77.0258 64.9597ZM39.33 48.0785H63.4372V58.713C63.4372 59.2876 63.9034 59.7513 64.4787 59.7513H73.6719V64.9578H39.33V48.0785V48.0785ZM54.9001 76.5574C52.3734 75.6562 50.7058 74.2593 50.7058 72.0531C50.7058 69.464 52.8942 67.5057 56.4568 67.5057C58.1939 67.5057 59.4328 67.8436 60.3352 68.2698L59.5682 71.0167C58.5851 70.5385 57.5051 70.2925 56.4116 70.2976C54.9227 70.2976 54.2008 70.9942 54.2008 71.7602C54.2008 72.7291 55.0336 73.1553 57.0189 73.8988C59.7035 74.8901 60.9424 76.2852 60.9424 78.4256C60.9424 80.9716 59.0042 83.1327 54.8324 83.1327C53.0953 83.1327 51.3826 82.6595 50.5254 82.1864L51.2247 79.3719C52.4053 79.9739 53.7082 80.2976 55.0336 80.3182C56.6128 80.3182 57.4475 79.6629 57.4475 78.6734C57.4475 77.7272 56.7275 77.1883 54.9001 76.5574V76.5574ZM36.9912 75.521C36.9912 70.3633 40.6892 67.5038 45.2877 67.5038C47.0699 67.5038 48.4216 67.8624 49.0308 68.1572L48.3088 70.8815C47.3956 70.4986 46.4134 70.3069 45.423 70.3183C42.7177 70.3183 40.599 71.9611 40.599 75.3389C40.599 78.3561 42.4019 80.2713 45.4456 80.2713C46.5059 80.2713 47.6339 80.0704 48.3314 79.7756L48.8296 82.4774C48.2205 82.7684 46.7766 83.1308 44.9512 83.1308C39.6966 83.1327 36.9912 79.845 36.9912 75.521V75.521ZM73.67 96.362H39.33V86.3489H73.67V96.362V96.362ZM70.8914 82.9074H66.8776L62.0084 67.7291H65.774L67.6221 74.1485C68.1391 75.9716 68.6128 77.684 68.9738 79.5747H69.0415C69.4259 77.7704 69.8844 75.9827 70.4158 74.2161L72.3559 67.731H76.0069L70.8914 82.9074V82.9074Z" fill="#ED4C5C"/>
</svg>
