<svg width="109" height="114" viewBox="0 0 109 114" fill="none" xmlns="http://www.w3.org/2000/svg">
<path d="M64.75 89.1797H58.9609V70.25C58.9609 69.9063 58.6797 69.625 58.3359 69.625H53.6484C53.3047 69.625 53.0234 69.9063 53.0234 70.25V89.1797H47.25C46.7265 89.1797 46.4375 89.7813 46.7578 90.1875L55.5078 101.258C55.5663 101.333 55.641 101.393 55.7262 101.434C55.8115 101.476 55.9051 101.498 56 101.498C56.0948 101.498 56.1885 101.476 56.2737 101.434C56.359 101.393 56.4337 101.333 56.4922 101.258L65.2422 90.1875C65.5625 89.7813 65.2734 89.1797 64.75 89.1797V89.1797Z" fill="#ED4C5C"/>
<path d="M79.3906 62.6484C75.8125 53.2109 66.6953 46.5 56.0156 46.5C45.3359 46.5 36.2187 53.2031 32.6406 62.6406C25.9453 64.3984 21 70.5 21 77.75C21 86.3828 27.9922 93.375 36.6172 93.375H39.75C40.0938 93.375 40.375 93.0938 40.375 92.75V88.0625C40.375 87.7187 40.0938 87.4375 39.75 87.4375H36.6172C33.9844 87.4375 31.5078 86.3906 29.6641 84.4922C27.8281 82.6016 26.8516 80.0547 26.9375 77.4141C27.0078 75.3516 27.7109 73.4141 28.9844 71.7813C30.2891 70.1172 32.1172 68.9062 34.1484 68.3672L37.1094 67.5938L38.1953 64.7344C38.8672 62.9531 39.8047 61.2891 40.9844 59.7812C42.149 58.2868 43.5286 56.973 45.0781 55.8828C48.2891 53.625 52.0703 52.4297 56.0156 52.4297C59.9609 52.4297 63.7422 53.625 66.9531 55.8828C68.5078 56.9766 69.8828 58.2891 71.0469 59.7812C72.2266 61.2891 73.1641 62.9609 73.8359 64.7344L74.9141 67.5859L77.8672 68.3672C82.1016 69.5078 85.0625 73.3594 85.0625 77.75C85.0625 80.3359 84.0547 82.7734 82.2266 84.6016C81.33 85.5033 80.2635 86.2183 79.0888 86.7051C77.914 87.1919 76.6544 87.4408 75.3828 87.4375H72.25C71.9062 87.4375 71.625 87.7187 71.625 88.0625V92.75C71.625 93.0938 71.9062 93.375 72.25 93.375H75.3828C84.0078 93.375 91 86.3828 91 77.75C91 70.5078 86.0703 64.4141 79.3906 62.6484Z" fill="#ED4C5C"/>
<path d="M53.9922 37.85C53.9922 44.15 53.3089 49.6333 51.9422 54.3C50.6089 58.9333 48.7422 62.7667 46.3422 65.8C43.9755 68.8333 41.1589 71.1 37.8922 72.6C34.6589 74.0667 31.1589 74.8 27.3922 74.8C23.6255 74.8 20.1255 74.0667 16.8922 72.6C13.6922 71.1 10.9089 68.8333 8.54219 65.8C6.17552 62.7667 4.32552 58.9333 2.99219 54.3C1.65885 49.6333 0.992188 44.15 0.992188 37.85C0.992188 31.5167 1.65885 26.0333 2.99219 21.4C4.32552 16.7667 6.17552 12.9333 8.54219 9.9C10.9089 6.86666 13.6922 4.61666 16.8922 3.15C20.1255 1.65 23.6255 0.899999 27.3922 0.899999C31.1589 0.899999 34.6589 1.65 37.8922 3.15C41.1589 4.61666 43.9755 6.86666 46.3422 9.9C48.7422 12.9333 50.6089 16.7667 51.9422 21.4C53.3089 26.0333 53.9922 31.5167 53.9922 37.85ZM41.2422 37.85C41.2422 32.6167 40.8589 28.2833 40.0922 24.85C39.3255 21.4167 38.2922 18.6833 36.9922 16.65C35.7255 14.6167 34.2589 13.2 32.5922 12.4C30.9255 11.5667 29.1922 11.15 27.3922 11.15C25.6255 11.15 23.9089 11.5667 22.2422 12.4C20.6089 13.2 19.1589 14.6167 17.8922 16.65C16.6255 18.6833 15.6089 21.4167 14.8422 24.85C14.1089 28.2833 13.7422 32.6167 13.7422 37.85C13.7422 43.0833 14.1089 47.4167 14.8422 50.85C15.6089 54.2833 16.6255 57.0167 17.8922 59.05C19.1589 61.0833 20.6089 62.5167 22.2422 63.35C23.9089 64.15 25.6255 64.55 27.3922 64.55C29.1922 64.55 30.9255 64.15 32.5922 63.35C34.2589 62.5167 35.7255 61.0833 36.9922 59.05C38.2922 57.0167 39.3255 54.2833 40.0922 50.85C40.8589 47.4167 41.2422 43.0833 41.2422 37.85ZM108.25 64.75V74H68.25V64.75H82.9V22.6C82.9 20.9333 82.95 19.2167 83.05 17.45L72.65 26.15C72.05 26.6167 71.45 26.9167 70.85 27.05C70.2833 27.15 69.7333 27.15 69.2 27.05C68.7 26.95 68.25 26.7833 67.85 26.55C67.45 26.2833 67.15 26 66.95 25.7L63.05 20.35L85.1 1.6H95.25V64.75H108.25Z" fill="#101010" fill-opacity="0.08"/>
</svg>
