<svg width="26" height="28" viewBox="0 0 26 28" fill="none" xmlns="http://www.w3.org/2000/svg">
<path d="M0 1.71815V26.2807C0.000164555 26.3339 0.0160587 26.386 0.0456893 26.4303C0.07532 26.4746 0.117368 26.5091 0.166561 26.5296C0.215754 26.5501 0.269902 26.5556 0.322215 26.5455C0.374528 26.5353 0.422677 26.5099 0.460625 26.4725L13.25 14L0.460625 1.52628C0.422677 1.48886 0.374528 1.46349 0.322215 1.45333C0.269902 1.44317 0.215754 1.44868 0.166561 1.46917C0.117368 1.48966 0.07532 1.52422 0.0456893 1.56852C0.0160587 1.61281 0.000164555 1.66486 0 1.71815Z" fill="white"/>
<path d="M18.6125 8.87494L2.57627 0.0399422L2.56627 0.0343172C2.29002 -0.115683 2.02752 0.258067 2.25377 0.475567L14.8244 12.4956L18.6125 8.87494Z" fill="white"/>
<path d="M2.25499 27.5244C2.02749 27.7419 2.28999 28.1157 2.56749 27.9657L2.57749 27.96L18.6125 19.125L14.8244 15.5032L2.25499 27.5244Z" fill="white"/>
<path d="M25.0863 12.4374L20.6081 9.97119L16.3975 13.9999L20.6081 18.0268L25.0863 15.5624C26.3044 14.8893 26.3044 13.1106 25.0863 12.4374Z" fill="white"/>
</svg>
